<svg width="33" height="33" viewBox="0 0 33 33" fill="current" xmlns="http://www.w3.org/2000/svg">
<path fill="#84858E" d="M2.0625 5.15625C2.0625 4.33574 2.38845 3.54883 2.96864 2.96864C3.54883 2.38845 4.33574 2.0625 5.15625 2.0625H11.3438C12.1643 2.0625 12.9512 2.38845 13.5314 2.96864C14.1116 3.54883 14.4375 4.33574 14.4375 5.15625V11.3438C14.4375 12.1643 14.1116 12.9512 13.5314 13.5314C12.9512 14.1116 12.1643 14.4375 11.3438 14.4375H5.15625C4.33574 14.4375 3.54883 14.1116 2.96864 13.5314C2.38845 12.9512 2.0625 12.1643 2.0625 11.3438V5.15625ZM5.15625 4.125C4.88275 4.125 4.62044 4.23365 4.42705 4.42705C4.23365 4.62044 4.125 4.88275 4.125 5.15625V11.3438C4.125 11.6173 4.23365 11.8796 4.42705 12.073C4.62044 12.2664 4.88275 12.375 5.15625 12.375H11.3438C11.6173 12.375 11.8796 12.2664 12.073 12.073C12.2664 11.8796 12.375 11.6173 12.375 11.3438V5.15625C12.375 4.88275 12.2664 4.62044 12.073 4.42705C11.8796 4.23365 11.6173 4.125 11.3438 4.125H5.15625ZM18.5625 5.15625C18.5625 4.33574 18.8884 3.54883 19.4686 2.96864C20.0488 2.38845 20.8357 2.0625 21.6562 2.0625H27.8438C28.6643 2.0625 29.4512 2.38845 30.0314 2.96864C30.6116 3.54883 30.9375 4.33574 30.9375 5.15625V11.3438C30.9375 12.1643 30.6116 12.9512 30.0314 13.5314C29.4512 14.1116 28.6643 14.4375 27.8438 14.4375H21.6562C20.8357 14.4375 20.0488 14.1116 19.4686 13.5314C18.8884 12.9512 18.5625 12.1643 18.5625 11.3438V5.15625ZM21.6562 4.125C21.3827 4.125 21.1204 4.23365 20.927 4.42705C20.7336 4.62044 20.625 4.88275 20.625 5.15625V11.3438C20.625 11.6173 20.7336 11.8796 20.927 12.073C21.1204 12.2664 21.3827 12.375 21.6562 12.375H27.8438C28.1173 12.375 28.3796 12.2664 28.573 12.073C28.7664 11.8796 28.875 11.6173 28.875 11.3438V5.15625C28.875 4.88275 28.7664 4.62044 28.573 4.42705C28.3796 4.23365 28.1173 4.125 27.8438 4.125H21.6562ZM2.0625 21.6562C2.0625 20.8357 2.38845 20.0488 2.96864 19.4686C3.54883 18.8884 4.33574 18.5625 5.15625 18.5625H11.3438C12.1643 18.5625 12.9512 18.8884 13.5314 19.4686C14.1116 20.0488 14.4375 20.8357 14.4375 21.6562V27.8438C14.4375 28.6643 14.1116 29.4512 13.5314 30.0314C12.9512 30.6116 12.1643 30.9375 11.3438 30.9375H5.15625C4.33574 30.9375 3.54883 30.6116 2.96864 30.0314C2.38845 29.4512 2.0625 28.6643 2.0625 27.8438V21.6562ZM5.15625 20.625C4.88275 20.625 4.62044 20.7336 4.42705 20.927C4.23365 21.1204 4.125 21.3827 4.125 21.6562V27.8438C4.125 28.1173 4.23365 28.3796 4.42705 28.573C4.62044 28.7664 4.88275 28.875 5.15625 28.875H11.3438C11.6173 28.875 11.8796 28.7664 12.073 28.573C12.2664 28.3796 12.375 28.1173 12.375 27.8438V21.6562C12.375 21.3827 12.2664 21.1204 12.073 20.927C11.8796 20.7336 11.6173 20.625 11.3438 20.625H5.15625ZM18.5625 21.6562C18.5625 20.8357 18.8884 20.0488 19.4686 19.4686C20.0488 18.8884 20.8357 18.5625 21.6562 18.5625H27.8438C28.6643 18.5625 29.4512 18.8884 30.0314 19.4686C30.6116 20.0488 30.9375 20.8357 30.9375 21.6562V27.8438C30.9375 28.6643 30.6116 29.4512 30.0314 30.0314C29.4512 30.6116 28.6643 30.9375 27.8438 30.9375H21.6562C20.8357 30.9375 20.0488 30.6116 19.4686 30.0314C18.8884 29.4512 18.5625 28.6643 18.5625 27.8438V21.6562ZM21.6562 20.625C21.3827 20.625 21.1204 20.7336 20.927 20.927C20.7336 21.1204 20.625 21.3827 20.625 21.6562V27.8438C20.625 28.1173 20.7336 28.3796 20.927 28.573C21.1204 28.7664 21.3827 28.875 21.6562 28.875H27.8438C28.1173 28.875 28.3796 28.7664 28.573 28.573C28.7664 28.3796 28.875 28.1173 28.875 27.8438V21.6562C28.875 21.3827 28.7664 21.1204 28.573 20.927C28.3796 20.7336 28.1173 20.625 27.8438 20.625H21.6562Z"/>
</svg>
